<?xml version="1.0" standalone="no"?>
<!DOCTYPE svg PUBLIC "-//W3C//DTD SVG 20010904//EN"
 "http://www.w3.org/TR/2001/REC-SVG-20010904/DTD/svg10.dtd">
<svg version="1.0" xmlns="http://www.w3.org/2000/svg"
 width="682.000000pt" height="797.000000pt" viewBox="0 0 682.000000 797.000000"
 preserveAspectRatio="xMidYMid meet">
<metadata>
Created by potrace 1.16, written by Peter Selinger 2001-2019
</metadata>
<g transform="translate(0.000000,797.000000) scale(0.100000,-0.100000)"
fill="#000000" stroke="none">
<path d="M2870 7634 c-12 -4 -15 -24 -14 -107 1 -166 3 -189 15 -181 7 4 9 0
5 -12 -12 -40 1 -288 23 -444 13 -97 13 -679 -1 -745 -5 -27 -13 -140 -17
-250 -5 -110 -9 -200 -9 -201 -15 -9 -42 -51 -42 -65 0 -9 -3 -24 -6 -33 -4
-10 1 -18 12 -23 11 -3 23 -12 27 -20 4 -7 14 -13 22 -13 7 0 20 -13 29 -30 8
-16 12 -30 10 -30 -15 0 -71 30 -83 43 -7 10 -23 17 -36 17 -12 0 -35 11 -51
25 -16 14 -33 25 -37 25 -4 0 -20 9 -35 20 -21 15 -52 21 -137 27 -91 7 -110
11 -113 25 -4 21 45 48 88 48 41 0 103 27 98 42 -3 7 -21 13 -41 14 -20 1 -43
7 -52 14 -17 14 -45 7 -45 -13 0 -17 -45 -38 -65 -31 -8 4 -15 1 -15 -5 0 -6
-7 -11 -15 -11 -9 0 -12 6 -8 17 5 13 2 15 -15 11 -12 -4 -22 -3 -22 1 0 8
-81 62 -110 74 -8 4 -33 18 -55 32 -22 13 -49 29 -60 34 -12 5 -27 16 -34 25
-18 21 -53 20 -91 -2 -23 -14 -27 -21 -18 -30 21 -21 -13 -41 -89 -52 -40 -5
-80 -7 -90 -4 -109 37 -239 107 -251 136 -2 5 -13 8 -25 8 -12 0 -28 9 -35 20
-7 11 -21 20 -31 20 -11 0 -27 7 -35 16 -17 17 -47 12 -66 -11 -10 -12 -9 -16
5 -21 9 -4 27 -16 39 -28 39 -37 88 -76 95 -76 3 0 31 -15 61 -33 30 -18 80
-43 110 -57 30 -13 62 -30 70 -36 8 -7 27 -15 41 -19 31 -8 79 -67 60 -73 -7
-2 -23 -14 -37 -27 -31 -29 -123 -41 -188 -24 -26 6 -49 15 -52 20 -3 5 -16 9
-28 9 -14 0 -30 10 -39 24 -9 13 -25 26 -37 29 -36 9 -19 -24 23 -46 20 -10
37 -25 37 -33 0 -8 5 -14 11 -14 5 0 8 -4 5 -9 -12 -18 33 -25 187 -26 151 -1
189 -8 173 -33 -3 -5 -27 -12 -52 -15 -28 -3 -51 -11 -56 -21 -20 -35 -69 -49
-173 -49 -117 0 -195 9 -209 23 -6 6 -16 10 -23 10 -19 0 1 -37 38 -68 37 -30
36 -45 -1 -74 -66 -51 -198 -188 -240 -248 -25 -35 -63 -85 -85 -110 -46 -52
-61 -74 -76 -112 -6 -16 -15 -28 -20 -28 -12 0 -12 -77 0 -82 14 -5 18 -40 5
-45 -7 -2 -14 8 -18 22 -8 32 -22 32 -30 0 -7 -26 0 -38 46 -82 29 -27 28 -48
-3 -56 -10 -3 -21 -11 -23 -19 -2 -7 -9 -30 -15 -50 -16 -50 -5 -64 23 -31 18
21 32 27 60 26 33 -1 36 1 36 27 0 16 -6 35 -13 42 -8 7 -14 31 -15 52 -1 21
-7 45 -13 52 -15 18 21 60 68 80 40 17 43 17 43 -1 0 -21 36 -19 44 2 6 15 10
13 32 -10 14 -15 31 -27 38 -27 16 0 46 -32 46 -49 0 -6 -6 -11 -13 -9 -16 4
-87 -38 -87 -52 0 -5 -6 -10 -14 -10 -8 0 -18 -10 -22 -22 -3 -13 -20 -35 -37
-49 -17 -14 -31 -35 -32 -47 -1 -16 2 -19 10 -12 7 5 14 8 17 5 3 -3 11 1 18
10 7 8 17 15 23 15 5 0 15 7 21 15 9 12 14 11 34 -5 l23 -19 -21 -21 c-25 -25
-25 -37 0 -45 33 -10 24 -46 -21 -87 -23 -21 -45 -38 -49 -38 -4 0 -10 12 -13
26 -3 19 3 35 25 60 34 39 29 55 -16 52 -17 -1 -37 1 -43 5 -5 4 -18 -2 -28
-13 -10 -11 -26 -20 -37 -20 -16 0 -17 -5 -12 -39 5 -33 3 -42 -17 -59 -13
-12 -34 -30 -47 -41 -19 -16 -23 -28 -21 -63 3 -59 9 -66 25 -29 10 25 19 31
43 31 22 0 30 5 33 20 2 12 8 21 13 20 14 0 18 -155 5 -180 -6 -11 -16 -20
-22 -20 -7 0 -22 -12 -33 -27 -30 -36 -45 -22 -45 42 0 44 -3 55 -19 60 -25 8
-62 -14 -50 -29 39 -48 52 -73 55 -112 2 -24 0 -44 -4 -44 -4 0 -5 -24 -4 -54
3 -49 1 -56 -22 -71 -16 -11 -26 -27 -26 -41 0 -17 -8 -27 -25 -34 -26 -10
-37 -38 -39 -101 -2 -91 -24 -15 -29 103 -3 56 -11 78 -24 65 -3 -4 -6 -53 -5
-110 5 -397 1 -625 -14 -635 -9 -6 -20 -46 -53 -192 -4 -19 -15 -47 -25 -62
-14 -21 -16 -39 -12 -80 7 -68 -10 -122 -41 -126 -18 -3 -23 2 -23 18 0 39
-27 32 -78 -19 -55 -55 -57 -60 -67 -143 -3 -32 -11 -60 -16 -63 -12 -8 -12
-65 1 -65 6 0 10 5 10 11 0 16 52 69 62 63 4 -3 8 -21 8 -40 0 -26 -8 -42 -31
-63 -36 -33 -55 -111 -64 -259 -5 -93 -1 -108 30 -113 25 -5 32 -57 13 -99
-16 -37 -35 -38 -50 -5 -17 39 -31 30 -26 -18 4 -34 0 -46 -17 -63 -18 -16
-23 -36 -29 -111 -3 -49 -3 -116 0 -148 6 -49 14 -65 55 -113 59 -70 71 -114
51 -192 -7 -30 -19 -88 -25 -127 -5 -40 -14 -73 -19 -73 -4 0 -8 -4 -8 -9 0
-45 409 -50 480 -6 10 6 9 11 -5 22 -11 7 -28 13 -39 13 -20 0 -76 58 -76 79
0 5 -15 29 -33 53 -18 24 -38 61 -45 84 -6 23 -22 56 -35 75 -43 64 -57 119
-57 219 0 52 -5 113 -11 134 -12 44 1 221 26 336 8 36 16 76 18 90 3 14 19 58
36 99 17 40 31 85 31 100 0 14 7 39 15 55 8 15 15 34 15 41 0 6 11 17 25 23
35 16 193 131 304 221 51 42 113 90 136 106 24 17 58 44 77 60 38 34 74 55 95
55 12 0 12 -2 -1 -15 -29 -29 -29 -76 -2 -135 14 -30 26 -65 26 -76 0 -12 8
-32 18 -45 23 -31 62 -122 62 -146 0 -11 7 -28 15 -39 8 -10 15 -26 15 -34 0
-8 6 -27 14 -41 7 -14 16 -51 20 -82 4 -31 14 -61 22 -68 8 -6 14 -19 14 -28
0 -24 40 -142 57 -166 19 -28 16 -75 -7 -110 -11 -16 -20 -38 -20 -47 0 -10
-4 -18 -8 -18 -5 0 -16 -15 -25 -33 -46 -88 -73 -115 -123 -123 -24 -3 -44 -9
-44 -13 0 -3 -16 -17 -35 -30 -32 -22 -35 -27 -35 -75 0 -39 9 -70 35 -123 19
-39 35 -76 35 -81 0 -18 58 -69 86 -76 22 -6 32 -2 51 20 12 15 23 36 23 46 0
10 6 31 14 46 7 15 17 43 21 62 4 19 22 60 41 91 19 31 34 63 34 72 0 8 29 45
65 82 35 37 71 78 79 89 21 33 39 134 32 180 -7 44 -52 165 -67 181 -5 5 -9
17 -9 27 0 10 -6 29 -14 41 -8 12 -17 42 -21 67 -4 25 -11 50 -17 57 -5 6 -13
50 -18 97 -5 46 -13 94 -19 105 -14 25 -14 166 -1 191 12 23 75 60 102 60 21
0 188 76 198 90 3 3 25 20 50 37 67 46 113 100 151 177 18 37 40 71 48 74 7 3
28 -2 45 -10 50 -25 167 -76 211 -91 22 -8 56 -21 75 -28 19 -7 49 -18 67 -26
17 -7 42 -13 55 -13 12 0 43 -6 68 -15 25 -8 88 -24 140 -36 87 -20 124 -22
450 -25 195 -1 358 -2 363 -3 14 -2 7 -46 -13 -76 -11 -16 -20 -41 -20 -55 0
-15 -5 -31 -11 -37 -6 -6 -14 -26 -19 -44 -22 -87 -43 -141 -99 -262 -23 -49
-41 -92 -41 -97 0 -4 -7 -10 -15 -14 -8 -3 -15 -13 -15 -22 0 -9 -7 -28 -15
-42 -42 -77 -48 -107 -55 -282 -4 -96 -12 -188 -18 -205 -16 -42 -52 -190 -52
-215 0 -11 -13 -46 -30 -77 -45 -84 -41 -104 33 -178 49 -49 65 -73 75 -112 8
-31 10 -58 4 -74 -13 -36 -15 -166 -3 -173 13 -8 3 -36 -14 -36 -7 0 -24 -9
-38 -20 -14 -11 -32 -20 -41 -20 -8 0 -20 -8 -25 -18 -9 -17 -4 -20 39 -30 27
-6 62 -9 77 -6 16 3 93 7 173 8 146 4 210 12 243 32 16 9 17 15 6 58 -7 30
-21 53 -36 64 -14 9 -55 48 -91 87 -37 38 -90 93 -118 121 l-51 52 -5 158 c-6
164 1 260 26 341 8 26 22 77 31 113 19 73 53 157 72 181 7 8 13 24 13 34 0 33
84 177 146 249 33 39 100 111 147 160 48 49 97 104 109 123 31 45 47 48 99 18
24 -13 55 -29 69 -35 100 -42 218 -101 233 -118 19 -21 57 -132 57 -166 0 -13
4 -46 9 -73 11 -54 28 -198 37 -318 3 -44 8 -84 11 -88 5 -8 -6 -41 -33 -104
-8 -17 -14 -40 -14 -51 0 -15 -18 -29 -72 -55 -40 -20 -89 -42 -108 -49 -19
-7 -56 -34 -82 -60 -41 -40 -48 -52 -48 -85 0 -22 7 -48 15 -59 8 -10 15 -26
15 -34 0 -15 47 -111 59 -120 3 -3 26 -29 50 -57 23 -29 51 -53 60 -53 30 0
61 35 61 69 0 33 54 199 70 215 6 6 10 20 10 33 0 13 9 40 20 60 11 21 20 43
20 50 0 12 52 47 88 58 32 9 69 46 82 81 12 32 -4 222 -22 258 -15 29 -21 342
-8 416 26 144 25 164 -10 229 -22 40 -49 74 -82 98 -65 49 -158 160 -191 226
-43 87 -41 107 16 107 23 0 60 5 82 11 22 6 69 16 105 23 36 7 72 16 80 21 19
12 209 28 330 28 232 0 567 -42 631 -79 19 -11 36 -32 41 -49 20 -64 43 -111
66 -132 47 -43 117 -38 124 9 4 31 53 33 53 3 0 -44 37 -45 135 -5 40 16 82
30 92 30 28 0 66 32 99 84 22 35 37 47 68 56 23 6 41 15 41 20 0 6 6 10 14 10
19 0 126 119 126 140 0 10 7 34 15 54 17 39 14 61 -19 191 -8 33 -15 90 -16
126 0 133 -44 269 -91 284 -16 5 -19 12 -15 30 10 38 -96 155 -140 155 -17 0
-28 7 -31 20 -3 11 -12 20 -20 20 -9 0 -13 6 -10 14 4 11 -2 14 -21 14 -15 0
-31 1 -37 2 -5 1 -25 2 -42 1 -30 -1 -33 -4 -33 -32 0 -17 -9 -42 -20 -56 -12
-15 -20 -41 -20 -62 0 -97 -19 -130 -53 -96 -13 13 -17 13 -28 -1 -8 -10 -21
-13 -41 -9 -21 5 -28 3 -28 -9 0 -9 7 -16 15 -16 8 0 15 -9 15 -20 0 -26 -15
-25 -34 2 -28 39 -18 61 40 94 31 18 48 62 35 91 -17 36 -13 53 13 63 30 11
42 30 26 40 -13 8 -5 50 9 50 4 0 18 9 31 20 13 11 31 20 41 20 10 0 21 5 25
11 7 12 -71 96 -98 105 -10 3 -37 23 -60 45 -52 49 -226 159 -252 159 -15 0
-17 -6 -14 -30 4 -24 0 -32 -25 -43 -17 -9 -25 -17 -18 -21 17 -11 14 -76 -4
-76 -15 0 -20 14 -30 93 -5 39 -3 47 9 47 22 0 20 23 -4 45 -11 10 -30 39 -43
64 -21 44 -38 63 -53 61 -4 -1 -11 4 -15 12 -7 11 -11 10 -19 -2 -14 -22 -42
-1 -53 40 -5 18 -20 43 -35 54 -39 31 -92 66 -99 66 -4 0 -15 7 -25 17 -10 9
-21 13 -25 9 -4 -4 -2 -11 5 -15 17 -10 42 -58 34 -65 -12 -13 -33 -5 -63 25
-26 25 -30 36 -25 60 5 26 2 31 -22 40 -15 6 -40 20 -57 33 -16 12 -64 39
-105 59 -136 66 -250 138 -302 190 -16 15 -60 75 -98 132 -39 57 -86 116 -106
132 -34 27 -34 29 -18 52 16 22 21 23 84 17 91 -9 152 7 188 49 53 65 92 124
84 129 -5 3 -36 -19 -70 -49 -75 -65 -124 -82 -197 -67 -27 6 -81 16 -120 23
-38 7 -76 19 -84 27 -13 12 -12 17 10 33 13 10 38 23 54 29 17 7 37 16 45 21
8 5 38 20 65 34 82 42 201 162 181 183 -3 3 -6 0 -6 -6 0 -17 -40 -15 -46 3
-4 8 2 27 12 43 32 47 84 154 96 196 6 23 13 67 15 99 4 50 3 57 -14 57 -10 0
-34 -15 -53 -33 -19 -19 -54 -46 -78 -61 -23 -15 -68 -46 -100 -70 -109 -82
-193 -127 -224 -121 -15 4 -28 3 -28 -2 0 -5 -12 -14 -27 -21 -16 -7 -40 -20
-55 -30 -37 -23 -62 -8 -66 41 -3 31 2 39 35 63 78 57 93 80 93 140 0 53 -1
54 -29 54 -20 0 -34 -8 -46 -26 -26 -40 -152 -143 -195 -160 -33 -12 -76 -38
-92 -55 -24 -24 -23 -32 2 -17 10 7 22 9 26 6 18 -19 -35 -106 -57 -93 -6 4
-9 20 -7 36 5 33 5 33 -22 17 -16 -10 -24 -10 -40 0 -27 17 -30 15 -30 -11 0
-12 -10 -29 -22 -37 -30 -21 -113 -102 -124 -121 -10 -19 -137 -129 -149 -129
-4 0 -18 -9 -32 -20 -37 -29 -130 -27 -207 4 -33 13 -63 31 -68 40 -5 9 -15
16 -23 16 -8 0 -39 10 -70 23 -42 17 -57 29 -66 52 -6 17 -15 111 -20 209 -5
98 -13 193 -19 210 -5 17 -9 65 -9 106 2 95 -18 263 -37 313 -10 27 -14 84
-14 200 0 128 -5 183 -22 262 -12 55 -20 114 -19 130 1 17 2 42 2 58 -1 15 -2
44 -3 65 0 20 3 47 7 60 6 19 4 24 -14 29 -23 6 -29 33 -7 33 28 0 38 29 37
111 -1 100 -11 116 -61 103z m1268 -1866 c-2 -12 -15 -29 -29 -37 -15 -9 -45
-27 -68 -40 -22 -14 -41 -28 -41 -33 0 -4 -5 -8 -12 -8 -6 0 -18 -7 -27 -15
-47 -44 -84 -66 -110 -67 -17 -1 -28 -5 -25 -9 11 -18 -45 -41 -83 -35 -21 3
-60 8 -86 10 -66 5 -68 12 -6 25 36 8 56 8 63 1 15 -15 72 -12 86 5 7 8 19 15
26 15 8 0 14 4 14 9 0 5 25 22 55 37 31 14 58 30 61 35 3 5 13 9 23 9 12 0 25
14 35 35 9 19 21 35 26 35 5 0 21 11 36 25 34 32 67 34 62 3z m-804 -203 c11
-30 -24 -40 -141 -38 -67 1 -113 -2 -113 -7 0 -18 -55 -11 -67 9 -18 28 3 35
142 41 66 3 132 6 147 7 15 1 29 -4 32 -12z m-1498 -790 c9 -14 22 -25 30 -25
7 0 33 11 58 25 55 30 73 31 81 4 8 -24 -13 -48 -66 -73 -43 -20 -65 -52 -49
-71 9 -10 7 -18 -8 -33 -10 -10 -29 -39 -41 -64 -12 -26 -29 -52 -37 -58 -25
-21 -16 -62 21 -102 19 -20 35 -39 35 -41 0 -12 -51 -16 -77 -6 -30 11 -63 42
-63 59 0 5 -4 10 -9 10 -5 0 9 19 30 43 38 41 66 107 54 127 -3 6 6 25 20 45
15 19 24 39 20 45 -9 14 -62 13 -72 -2 -9 -16 -5 -48 9 -65 7 -9 4 -15 -13
-22 -13 -5 -39 -24 -57 -42 -43 -42 -62 -27 -27 21 14 19 25 40 25 47 0 7 4
13 9 13 5 0 11 9 14 19 3 14 -8 31 -39 59 l-43 40 27 11 c15 6 49 16 75 22 27
7 51 18 54 25 8 21 21 17 39 -11z m1094 5 c0 -5 6 -10 14 -10 18 0 30 -33 21
-60 -5 -17 -15 -20 -59 -20 -50 0 -54 -2 -66 -31 -27 -64 -65 -78 -82 -29 -8
24 -15 29 -29 25 -14 -5 -19 -1 -19 14 0 24 10 27 28 9 9 -9 12 -9 12 3 0 19
35 40 90 54 30 7 48 18 55 33 10 22 35 31 35 12z m-322 -45 c18 -6 15 -115 -4
-154 -14 -27 -41 -51 -59 -51 -3 0 -10 11 -15 25 -12 32 -20 31 -55 -5 -34
-35 -70 -39 -85 -9 -17 31 23 86 73 100 36 9 37 11 37 54 0 25 5 45 13 48 11
5 68 0 95 -8z m2144 -147 c104 -112 102 -111 131 -78 24 29 39 25 80 -21 35
-38 41 -64 14 -54 -7 3 -19 1 -27 -4 -12 -9 -12 -12 3 -29 20 -22 22 -52 4
-52 -16 0 -41 27 -51 54 -4 12 0 23 11 31 15 11 12 14 -23 26 -21 7 -51 12
-65 10 -20 -2 -28 3 -32 19 -8 30 -27 15 -27 -21 0 -34 -15 -37 -47 -10 -17
14 -23 30 -23 62 0 27 -6 46 -17 54 -21 16 -10 45 17 45 12 0 35 -15 52 -32z
m-2551 -14 c8 -8 31 -14 50 -15 32 -1 31 -2 -11 -10 -57 -11 -92 -37 -105 -77
-19 -55 -27 -48 -19 16 6 59 5 62 -15 62 -15 0 -21 -6 -21 -22 0 -23 -79 -108
-100 -108 -5 0 -10 13 -10 29 0 20 12 43 40 73 22 23 40 48 40 55 0 26 121 24
151 -3z m1272 -106 c48 -53 59 -81 51 -124 -5 -25 -13 -36 -31 -40 -29 -8 -40
1 -24 19 13 17 4 47 -14 47 -8 0 -27 12 -44 26 -46 38 -40 114 8 114 8 0 32
-19 54 -42z m-1037 -48 c0 -41 -3 -82 -8 -91 -9 -20 -90 -69 -112 -69 -22 0
-20 21 3 27 22 6 43 46 35 68 -8 21 -25 19 -31 -5 -3 -10 -14 -22 -24 -25 -10
-4 -20 -12 -21 -18 0 -7 -2 -16 -3 -22 -2 -5 -3 -18 -4 -27 0 -10 -14 -24 -30
-32 -26 -14 -29 -21 -35 -84 -6 -56 -12 -73 -32 -91 -24 -21 -64 -29 -64 -12
0 4 9 19 19 33 29 36 37 91 16 111 -9 10 -20 17 -25 17 -16 0 -40 -31 -40 -52
0 -18 -25 -57 -65 -99 -8 -9 -15 -23 -15 -32 0 -10 -4 -17 -10 -17 -17 0 -11
65 9 112 10 24 33 52 50 63 32 21 35 31 31 103 l-2 43 31 -30 c59 -58 124 -29
134 60 5 38 14 60 33 80 35 37 102 70 134 67 24 -3 25 -6 26 -78z m326 50 c35
-44 17 -126 -38 -169 -44 -35 -56 -28 -53 29 3 50 -10 78 -30 66 -6 -4 -11
-13 -11 -20 0 -7 -14 -25 -30 -41 -25 -24 -34 -27 -48 -18 -19 12 -19 17 0 88
11 41 20 53 53 73 52 30 129 26 157 -8z m385 7 c18 -11 11 -123 -9 -143 -24
-24 -38 -9 -38 41 0 39 -2 43 -21 38 -12 -3 -26 -19 -31 -34 -10 -30 -26 -37
-45 -18 -7 7 -22 8 -47 1 -24 -7 -38 -7 -42 0 -7 11 13 28 33 28 6 0 16 14 22
32 19 55 34 64 103 63 35 -1 69 -4 75 -8z m2028 -46 c3 -10 19 -30 35 -46 27
-26 32 -27 54 -16 19 11 28 10 54 -3 42 -22 83 -106 51 -106 -8 0 -9 -15 -5
-45 l7 -45 -28 11 c-48 18 -63 38 -63 85 0 39 -3 43 -32 53 -77 24 -119 13
-83 -22 18 -19 20 -47 3 -47 -32 1 -73 55 -83 110 -19 96 -18 98 7 102 33 5
76 -11 83 -31z m-178 -180 c44 -60 46 -61 113 -61 72 0 84 -5 94 -37 6 -18 2
-25 -16 -34 -20 -9 -33 -6 -73 15 -26 14 -61 26 -77 26 -29 0 -58 24 -99 82
-14 19 -16 28 -7 31 19 8 52 -3 65 -22z m-2449 -90 c-4 -80 -7 -93 -34 -127
-16 -21 -32 -42 -35 -47 -4 -5 -12 -6 -18 -2 -8 5 -6 16 8 38 16 26 36 117 26
117 -2 0 -10 3 -19 6 -11 4 -23 -11 -46 -58 -57 -115 -61 -122 -71 -107 -11
18 -11 150 0 167 5 8 24 14 44 15 31 1 34 3 26 18 -10 19 -2 49 15 61 6 4 33
8 60 8 l48 0 -4 -89z m378 62 c14 -14 16 -31 11 -101 -4 -71 -9 -88 -28 -108
-34 -34 -71 -36 -79 -4 l-6 25 -15 -22 c-7 -13 -19 -23 -26 -23 -17 0 -43 40
-43 68 0 38 38 102 61 102 13 0 25 11 34 34 20 48 59 60 91 29z m-1270 -250
c-4 -43 -12 -83 -17 -90 -13 -14 -15 -97 -4 -138 8 -28 7 -29 -9 -12 -16 15
-19 15 -32 2 -18 -17 -49 -21 -38 -4 4 8 0 9 -15 4 -15 -5 -21 -2 -21 9 0 9
-4 16 -10 16 -5 0 -10 5 -10 10 0 6 11 10 25 10 30 0 52 45 66 135 15 97 29
135 52 135 19 0 19 -5 13 -77z m562 -31 c12 -4 38 -20 57 -36 32 -27 35 -34
35 -83 0 -38 -4 -55 -15 -59 -8 -4 -15 -17 -15 -29 0 -13 -5 -27 -11 -31 -9
-5 -10 6 -5 39 7 48 -15 124 -33 113 -5 -4 -21 -31 -35 -61 -47 -102 -95 -125
-83 -38 8 57 31 133 39 133 4 0 5 7 2 15 -15 37 11 52 64 37z m439 -24 c17
-16 23 -32 23 -65 0 -41 -1 -43 -30 -43 -16 0 -30 -4 -30 -9 0 -8 -65 -127
-77 -141 -12 -14 -23 32 -20 82 4 65 26 98 64 98 23 0 24 2 18 40 -11 62 10
78 52 38z m1481 -534 c46 -32 14 -95 -50 -98 l-33 -2 -11 -77 c-7 -56 -16 -84
-32 -99 -26 -27 -32 -22 -43 38 -13 69 -2 118 32 143 17 13 29 31 29 44 0 27
9 40 35 55 28 16 47 15 73 -4z"/>
</g>
</svg>
